<svg xmlns="http://www.w3.org/2000/svg" viewBox="0 0 354.9 361.52"><defs><style>.cls-1{fill:#fff;}</style></defs><title>Asset 1</title><g id="Layer_2" data-name="Layer 2"><g id="Logo_CAD-zwart_Image" data-name="Logo CAD-zwart Image"><path class="cls-1" d="M354.84,350.63q0,4,0,7.92c0,.84,0,.85-.85.86-4.8,0-9.6-.08-14.4.06-4.11.11-8.22,0-12.34.15-.64,0-.66,0-.66-.66,0-4.07,0-8.15,0-12.23h0c0-4,.1-7.92,0-11.88-.25-8.51-.12-17-.19-25.53v-.6c0-.78,0-.87.85-.87l11.64-.06,14.39,0h1a.41.41,0,0,1,.44.45c0,.32,0,.64,0,1v7a7.86,7.86,0,0,1,0,.84.43.43,0,0,1-.4.39c-.31,0-.63,0-.95,0l-15.72,0h-1a.33.33,0,0,0-.37.36c0,.16,0,.32,0,.48,0,2.56,0,5.12,0,7.68,0,.82,0,.83.88.83q8,0,16.08,0c1.8,0,1.48-.25,1.5,1.52,0,2.32,0,4.64,0,7,0,1,0,.92-.91.92l-13.55,0c-1.16,0-2.31.11-3.46.15-.43,0-.54.22-.54.61,0,2.75-.07,5.52,0,8.27.06,1.32.07,2.63.12,3.95,0,.64,0,.66.68.66H354C354.83,349.8,354.84,349.81,354.84,350.63Z"/><path class="cls-1" d="M354.9,298.34c0,.87,0,.83-.88.83H334.34l-6.11,0c-.86,0-.87,0-.87-.85q0-5.7,0-11.4V274h-.06V250.22c0-1.37-.18-1.25,1.31-1.26,6.16,0,12.32,0,18.48,0,2.11,0,4.22-.24,6.34-.17h.84a.38.38,0,0,1,.43.44c0,.28,0,.56,0,.84,0,2.44,0,4.88,0,7.32,0,.47-.1.71-.62.79a8.24,8.24,0,0,1-1.31.09H337.29a.4.4,0,0,0-.44.45v1.32c0,2.19,0,4.39,0,6.59,0,.75,0,.77.73.77,2,0,3.92.11,5.87,0,3.48-.24,6.95-.05,10.43-.13h.36c.38,0,.61.15.6.56,0,.16,0,.32,0,.48v7.08c0,1.13,0,1.13-1.12,1.14l-15.6.05c-1.38,0-1.23-.18-1.23,1.18q0,5.4,0,10.8v.84a.34.34,0,0,0,.36.38h16.92c.69,0,.71,0,.71.75C354.9,293.14,354.89,295.74,354.9,298.34Z"/><path class="cls-1" d="M320.1,290.72c0,2.59,0,5.19,0,7.79,0,.66,0,.68-.66.68-2.2,0-4.4-.05-6.6,0-5,.16-10.06.13-15.1.13-1.22,0-1.16.18-1.16-1.15q0-11.32,0-22.67h0q0-11.1,0-22.19c0-1.2-.25-2.38-.16-3.58.05-.72,0-.74.73-.74l8,0c.8,0,.81,0,.81.9,0,3.4-.08,6.8,0,10.2.26,8.07.07,16.14.14,24.21,0,1.56,0,3.12,0,4.68,0,1.26-.05,1.11,1.08,1.11,2.84,0,5.68,0,8.51,0,1.24,0,2.48,0,3.72,0C320,290.07,320.1,290.27,320.1,290.72Z"/><path class="cls-1" d="M319.61,316.89c0,.72,0,.74-.71.74-2.4,0-4.8,0-7.2,0-1.72,0-1.49-.25-1.49,1.55,0,6,0,11.92,0,17.88h.09c0,6,0,12.07,0,18.11,0,1.23.19,2.47.14,3.7,0,.73,0,.75-.73.76l-8.64,0c-.64,0-.64,0-.67-.68v-.48c0-5.71.09-11.44-.05-17.15-.18-7.51-.13-15-.18-22.54,0-.24,0-.48,0-.72a.4.4,0,0,0-.46-.42c-2.12.06-4.23-.12-6.35.1-.63.07-1.27,0-1.91,0-.31,0-.42-.18-.42-.46s0-.72,0-1.08q0-3.78,0-7.56c0-.65,0-.67.67-.67,1.8,0,3.6,0,5.4,0,6.16,0,12.31,0,18.47,0,1.08,0,2.15-.22,3.23-.17.69,0,.76.08.76.76C319.59,311.37,319.6,314.13,319.61,316.89Z"/><path class="cls-1" d="M287.18,359.32c0,.37-.1.51-.46.51-.72,0-1.44,0-2.16,0H273.05v.05H259.73c-.81,0-.82,0-.82-.89,0-2,0-3.92,0-5.88,0-6.27.1-12.55-.05-18.83-.2-8.23-.13-16.46-.18-24.69,0-1.55-.22-1.35,1.3-1.36,4.84,0,9.68.1,14.51-.06,3.88-.14,7.75,0,11.62-.15.82,0,.83,0,.83.86q0,4,0,7.92c0,.81,0,.82-.76.83-3.11.06-6.23.12-9.34.15-2.52,0-5,0-7.56.06-.74,0-.76,0-.76.69,0,2.68,0,5.36,0,8,0,.46.16.63.62.63,3.44,0,6.89.08,10.32-.08,2.24-.1,4.47-.05,6.7-.1.8,0,.83,0,.83.75q0,4,0,8c0,.65-.05.69-.65.74-.28,0-.56,0-.84,0l-15.47,0h-.72c-.74,0-.75,0-.76.72,0,1.32,0,2.64,0,4-.06,2.76.25,5.51.17,8.26,0,.7,0,.72.75.72,4.6,0,9.2,0,13.8,0,1,0,2.06-.15,3.1-.12.77,0,.81,0,.81.83C287.18,353.72,287.17,356.52,287.18,359.32Z"/><path class="cls-1" d="M251.45,359.35c0,.7,0,.7-.75.72h-.24l-22.06.06c-.2,0-.4,0-.6,0-.51.06-.61-.22-.59-.65,0-.24,0-.48,0-.72,0-6.19.11-12.39-.06-18.58-.16-5.47,0-10.94-.18-15.57V309.86c0-.28,0-.56,0-.84s.19-.54.58-.54c1.36,0,2.72,0,4.08,0s2.54-.2,3.82-.17c1.52,0,1.36-.22,1.36,1.31,0,2.88,0,5.75,0,8.63,0,6.28-.1,12.56.07,18.83.11,4.31,0,8.62.15,12.93,0,.7,0,.72.75.72l11,0c.51,0,1-.13,1.54-.14,1,0,1,0,1,1,0,1.44,0,2.88,0,4.32C251.42,357,251.45,358.19,251.45,359.35Z"/><path class="cls-1" d="M286.91,268.4a26.25,26.25,0,0,0-10.49-15.78,25.42,25.42,0,0,0-20.78-4.1,25.66,25.66,0,0,0-15.83,10.78,25,25,0,0,0-4.46,15.23,22.72,22.72,0,0,0,.92,7.18,26.65,26.65,0,0,0,9.91,14.16,23.65,23.65,0,0,0,12.71,4.69,29.63,29.63,0,0,0,6.45-.15,24.5,24.5,0,0,0,9.41-3.26,26.73,26.73,0,0,0,7.16-6.28,24.15,24.15,0,0,0,3.17-5.06,26,26,0,0,0,2.2-7.89A29,29,0,0,0,286.91,268.4Zm-14.76,19a15.23,15.23,0,0,1-8.81,3.87,16.15,16.15,0,0,1-9.47-1.75,16,16,0,0,1-8.24-9.78,16.49,16.49,0,0,1-.7-4.79,18,18,0,0,1,2.4-9.87,15.64,15.64,0,0,1,10.81-7.61,15.94,15.94,0,0,1,15.21,4.95,15.43,15.43,0,0,1,4.15,7.81C278.76,276.9,277.33,282.78,272.15,287.43Z"/><path class="cls-1" d="M217.44,360.15c-1.28,0-2.56,0-3.84,0-7.35.3-14.71.14-22.06.2-.55,0-1.24.24-1.61-.13s-.14-1.06-.14-1.61c0-4,0-7.92,0-11.88h0c0-4.2.1-8.4,0-12.59-.23-8-.13-15.91-.19-23.86v-.72c0-.83,0-.82.87-.85,8.75-.29,17.5-.16,26.26-.21h.72a.38.38,0,0,1,.43.44q0,.78,0,1.56l0,7c0,.6,0,.62-.56.65h-.72l-15.95,0c-.16,0-.32,0-.48,0-.73,0-.75,0-.75.72,0,1.68,0,3.36,0,5,0,1,0,2,0,3,0,.49.21.62.65.62,2.31,0,4.63,0,6.95,0,3.44,0,6.88,0,10.32,0,.42,0,.57.14.57.55q0,4.14,0,8.28c0,.39-.11.62-.54.58h-.24c-3.55,0-7.11.22-10.66.16-2,0-4.08,0-6.12,0-1,0-.9.08-.89.95,0,2-.1,3.92,0,5.87s.09,4.07.13,6.11c0,.67.15.83.76.7a10.18,10.18,0,0,1,2.27-.12q7,0,13.91-.05h.72c.8,0,.81,0,.81.78,0,2.12,0,4.24,0,6.36,0,.6,0,1.19,0,1.79S218.09,360.15,217.44,360.15Z"/><path class="cls-1" d="M179.88,330a26.39,26.39,0,0,0-6-13.45,19.17,19.17,0,0,0-7.33-5.44A34.3,34.3,0,0,0,155.77,309c-1-.07-2.08-.05-3.12,0-.6,0-1.18-.29-1.78-.13a7.15,7.15,0,0,1-1.9.12c-2.84,0-5.68,0-8.52,0-1.49,0-1.33-.26-1.31,1.36.06,8.79-.07,17.58.18,26.37.12,3.84,0,7.68,0,11.52h0v7.31c0,1.4,0,2.8,0,4.2,0,1,.08.89.83.87h.36c6-.05,11.9.16,17.85-.26a44.58,44.58,0,0,0,4.75-.56,19.14,19.14,0,0,0,11.77-7.42,24.89,24.89,0,0,0,4.81-11.06A34.69,34.69,0,0,0,179.88,330Zm-9.73,8.25a16.18,16.18,0,0,1-3.15,8.13,10.23,10.23,0,0,1-6.12,3.89,33.64,33.64,0,0,1-4,.56c-2.32.24-4.63.14-6.94.17-.73,0-.75,0-.76-.73,0-1.4,0-2.8,0-4.19s0-2.49,0-3.72c-.31-7.47-.09-15-.18-22.42,0-1.56,0-1.56,1.58-1.56,1.16,0,2.32-.05,3.48,0a21.65,21.65,0,0,1,8.24,1.73,13.12,13.12,0,0,1,7.07,8.32A22.89,22.89,0,0,1,170.15,338.24Z"/><path class="cls-1" d="M190.51,249.9v8.16c0,.7,0,.72-.76.72h-7.19c-1.28,0-1.18-.14-1.18,1.13q0,7,0,14v5.28h0v18.84c0,.28,0,.56,0,.84,0,.69,0,.71-.75.71H172.5c-.71,0-.71,0-.73-.73v-.6q0-18,0-36c0-1-.12-1.91-.14-2.87,0-.46-.18-.62-.63-.61-1.92,0-3.84,0-5.76,0-.64,0-1.28,0-1.92,0-.39,0-.58-.11-.58-.55,0-2.75,0-5.51-.05-8.27,0-.39.11-.62.54-.58h.36c5.12-.21,10.23-.13,15.34-.15l10.92,0C190.48,249.24,190.5,249.25,190.51,249.9Z"/><path class="cls-1" d="M112.25,318.09c0,.73,0,.74-.83.74l-7.2,0c-1.51,0-1.37-.19-1.37,1.31,0,11.4,0,22.79.12,34.19,0,1.91.11,3.83.11,5.74,0,.73,0,.75-.72.76l-8.63,0c-.63,0-.64,0-.66-.68,0-.4,0-.8,0-1.2,0-5.84.07-11.68,0-17.52-.14-7.23-.17-14.46-.17-21.7,0-.12,0-.24,0-.36,0-.42-.18-.54-.58-.54-1.28,0-2.56,0-3.84,0a32.49,32.49,0,0,0-3.94.13c-.72.09-.76,0-.76-.69q0-4.2,0-8.4c0-.65,0-.67.67-.67,1.84,0,3.68,0,5.52,0h6.48v0c3.84,0,7.68,0,11.51,0,1.2,0,2.39-.2,3.58-.14.7,0,.77.08.77.76C112.23,312.57,112.24,315.33,112.25,318.09Z"/><path class="cls-1" d="M81.53,360.3c0,.71,0,.72-.75.72l-22.67.07c-.79,0-.79,0-.8-.78,0-1,0-1.92,0-2.88,0-6.24.1-12.48,0-18.71-.23-9.23-.12-18.46-.19-27.69v-.36c0-1.38-.13-1.22,1.21-1.22h7.56c1.17,0,1.07-.1,1.07,1.12,0,4.28,0,8.56,0,12.84h0c0,4.28-.13,8.56,0,12.83.18,4.88,0,9.75.16,14.62,0,.16,0,.32,0,.48a.34.34,0,0,0,.37.37h1l11.63,0h1a.4.4,0,0,1,.43.46,1.92,1.92,0,0,0,0,.24C81.5,355,81.52,357.66,81.53,360.3Z"/><path class="cls-1" d="M106.8,272.19a26.25,26.25,0,0,0-1.19-6,26.69,26.69,0,0,0-9.47-12.93,24.76,24.76,0,0,0-14.44-5,25.11,25.11,0,0,0-8.6,1.2,26.23,26.23,0,0,0-18.41,24.05,27.18,27.18,0,0,0,.15,3.82,25.41,25.41,0,0,0,6.38,14.89,24.91,24.91,0,0,0,19.85,8.85c1.15-.06,2.42-.06,3.7-.22a24,24,0,0,0,8-2.49,27,27,0,0,0,9.86-8.9,25.62,25.62,0,0,0,4.25-13.26A27.42,27.42,0,0,0,106.8,272.19ZM92.21,287.33a15.12,15.12,0,0,1-8.36,4.33A16.62,16.62,0,0,1,70,287.83a15.31,15.31,0,0,1-5.45-9.68,17.94,17.94,0,0,1,2.68-13.36,15.54,15.54,0,0,1,10.4-6.85c7.34-1.29,13.83,1.83,17.62,8.46a16.63,16.63,0,0,1,2.1,8.19A17.14,17.14,0,0,1,92.21,287.33Z"/><path class="cls-1" d="M49.37,360.35,43,344c-2.11-5.38-4.2-10.75-6.31-16.13l-6.84-17.46c-.35-.9-.27-.86-1.29-.88-2.35,0-4.7.26-7.06.16-.36,0-.72,0-1.08,0-.91,0-.92,0-1.25.9q-3.72,9.84-7.45,19.66Q6.83,343.1,2,355.93c-.62,1.64-1.22,3.28-1.82,4.93-.22.62-.21.63.48.65h.71c2.52,0,5-.26,7.55-.16.2,0,.4,0,.6,0,.44,0,.77-.05.87-.58a6,6,0,0,1,.4-1c1.06-2.74,2.14-5.48,3.19-8.24a1,1,0,0,1,1.1-.8c6.19,0,12.38,0,18.57-.17,2,0,1.57-.38,2.35,1.61,1.09,2.78,2.16,5.56,3.21,8.36a.94.94,0,0,0,1.05.74c.84,0,1.68,0,2.88,0,1.68.15,3.7-.24,5.74-.16C49.65,361.14,49.66,361.1,49.37,360.35ZM30.87,341c-2.27.29-4.54.06-7,.17H19.15c-1.3,0-1.31,0-.86-1.16q2.3-6,4.6-12c.44-1.15.86-2.31,1.3-3.46.11-.28.16-.75.43-.77s.35.45.46.71c1.15,2.88,2.27,5.77,3.41,8.66q1.43,3.61,2.84,7.21C31.57,340.92,31.56,340.89,30.87,341Z"/><path class="cls-1" d="M48.27,291.18c.24.25.4.44,0,.77-3.34,3.12-6.86,6-11.21,7.61a27.74,27.74,0,0,1-7.21,1.57,32.06,32.06,0,0,1-4.9.13,27,27,0,0,1-11.24-2.88A24.52,24.52,0,0,1,.85,281.73a26.39,26.39,0,0,1-.69-7,24.13,24.13,0,0,1,1.57-9.66A24.58,24.58,0,0,1,12.21,252.6a27.14,27.14,0,0,1,10.11-3.78,29.09,29.09,0,0,1,8.23-.11,28.63,28.63,0,0,1,13.1,5.14,23.66,23.66,0,0,1,4.71,4.23c.28.34.35.55,0,.89-1.75,1.64-3.47,3.31-5.2,5l-.25.25c-.8.76-.79.75-1.58,0a23.84,23.84,0,0,0-7.39-5,19.18,19.18,0,0,0-8.67-1.33,15.91,15.91,0,0,0-9.68,3.92,16.3,16.3,0,0,0-5.15,7.63,17.36,17.36,0,0,0-.72,7.31,19.26,19.26,0,0,0,1.13,5c2.05,5.11,5.86,8.22,11.06,9.78a17,17,0,0,0,5,.66,18,18,0,0,0,11.9-4.27c.86-.71,1.69-1.46,2.51-2.22s.89-.79,1.69,0c1.27,1.32,2.53,2.66,3.8,4C47.25,290.17,47.76,290.67,48.27,291.18Z"/><path class="cls-1" d="M194,55.19c-.15.19-.37.1-.55,0a15.59,15.59,0,0,1-3.41-1.72,26.24,26.24,0,0,1-4.21-3.88c-1.46-1.59-2.85-3.25-4.37-4.78a14.8,14.8,0,0,0-6.26-4,2.21,2.21,0,0,0-1.62.06c-2.48,1.09-4.91,2.28-7.31,3.54-2.15,1.14-4.34,2.19-6.49,3.33a63.91,63.91,0,0,1-9.19,4,14.44,14.44,0,0,1-6,.92,4.42,4.42,0,0,1-4.12-3.22,32.69,32.69,0,0,1-1.16-5,65.38,65.38,0,0,1-.5-10c0-2,.07-4,0-6A39.1,39.1,0,0,0,137,17a1.89,1.89,0,0,0-1.63-1.45,18.26,18.26,0,0,0-8.15.54c-2.43.65-4.78,1.53-7.14,2.38A40.25,40.25,0,0,1,113,20.37a9.1,9.1,0,0,1-3.33.05,4.34,4.34,0,0,1-2.9-2.13,9.1,9.1,0,0,1-1.16-4.81A12.49,12.49,0,0,1,107,7.67a11.58,11.58,0,0,1,5.18-5,25.25,25.25,0,0,1,8-2.36A40,40,0,0,1,128,.07a37.82,37.82,0,0,1,4.52.27,35.76,35.76,0,0,1,3.54.58A35.19,35.19,0,0,1,139.84,2,15,15,0,0,1,146,6.24a6.45,6.45,0,0,1,1,2.63,48.72,48.72,0,0,1,1.2,7.79c.11,1.14,0,2.31.11,3.46.22,4,.06,8.1.25,12.14a35.7,35.7,0,0,0,.55,5.45c.1.51.07,1,.17,1.55a.85.85,0,0,0,.88.78,19.13,19.13,0,0,0,4.47-.4,45,45,0,0,0,9.18-3.34,66.52,66.52,0,0,1,8.09-3.23,19.44,19.44,0,0,1,7.43-.79,1.37,1.37,0,0,1,1,.56c1.71,2,3.33,4.06,4.88,6.2a69.47,69.47,0,0,1,4,6,57.45,57.45,0,0,1,4.07,8.11c.2.52.46,1,.69,1.53C194,54.81,194.15,55,194,55.19Z"/><path class="cls-1" d="M209.65,77.93a7.17,7.17,0,0,1-1.28.29,62.65,62.65,0,0,1-6.82,1.16c-2.44.31-4.89.47-7.33.54-5.13.15-10.27.1-15.41.15-2.77,0-5.52.3-8.29.48a7.08,7.08,0,0,0-4.89,2.65,21.39,21.39,0,0,0-3.07,4.55c-.91,1.73-1.93,3.39-3,5-.79,1.25-1.55,2.52-2.32,3.77l-4,6.5a37.51,37.51,0,0,1-3.85,5.17,21.5,21.5,0,0,1-8,6c-.59.23-1.16.51-1.78.7a1,1,0,0,1-1-.2c-1.31-1-2.67-2-3.9-3.17a60.68,60.68,0,0,1-8.22-9.31c-2.94-4-5.59-8.25-8.24-12.48-1.1-1.75-2.11-3.57-3.3-5.27-1.7-2.46-3.32-5-5.23-7.28C108.87,76.1,108,75,107,73.93c-.49-.52-.57-.52-1,0a51.37,51.37,0,0,0-3.5,4.55c-1.55,2.31-3.09,4.64-4.53,7C96.61,87.7,95.44,90,94.2,92.19c-1.72,3.09-3.41,6.21-5.18,9.28-1.6,2.79-3.28,5.54-5.14,8.18a61.12,61.12,0,0,1-6.72,8.09,47.41,47.41,0,0,1-4.36,3.9,19.59,19.59,0,0,1-6.06,3,18.1,18.1,0,0,1-5.85.85,11,11,0,0,1-8.53-3.86,10.17,10.17,0,0,1-2.56-5.82,9,9,0,0,1-.15-2,11.88,11.88,0,0,1,1.24-5.66A11.73,11.73,0,0,1,55,103.43a10.25,10.25,0,0,1,4.93-1.61c1.47-.13,2.93-.13,4.4-.18a13.37,13.37,0,0,0,2.35-.37,8,8,0,0,0,3.81-2.12,56.08,56.08,0,0,0,6-6.53c1.63-2.12,3.22-4.27,4.64-6.54,2.41-3.85,4.86-7.68,7.25-11.54a89.71,89.71,0,0,1,6.54-9.29A43.88,43.88,0,0,1,101,59a8.55,8.55,0,0,1,2.9-1.83A6.37,6.37,0,0,1,106.7,57a9.4,9.4,0,0,1,5.45,3,86.59,86.59,0,0,1,8.35,10c2.83,3.91,5.48,7.94,8,12,1.66,2.68,3.42,5.29,5.16,7.92,1.12,1.7,2.25,3.39,3.44,5a10,10,0,0,0,5,3.59c.43.15.65.15.92-.18,1.08-1.33,2.2-2.63,3.26-4,1.81-2.33,3.38-4.83,5-7.27,1.37-2,2.6-4.11,4-6.12a71.14,71.14,0,0,1,5.61-7.45,6.53,6.53,0,0,1,5.74-3.11,71.25,71.25,0,0,1,7.87,0c2.44.14,4.9.24,7.33.62,1.16.19,2.36.18,3.54.3a22.27,22.27,0,0,1,2.45.37c.55.12,1.09,0,1.64.1,1.6.23,3.2.44,4.81.63s3.2.43,4.79.72c1,.18,2,.32,3,.53a18.9,18.9,0,0,1,5.23,1.93,11.31,11.31,0,0,1,2.44,1.72C210,77.6,210,77.78,209.65,77.93Z"/><path class="cls-1" d="M288.45,69.65a56.79,56.79,0,0,0-2.23-6.3,34.36,34.36,0,0,0-2-4.21c-.63-1.2-1.27-2.4-1.87-3.61-1.12-2.21-2.36-4.34-3.67-6.44-1.68-2.71-3.37-5.42-5-8.16-1.13-1.88-2.16-3.81-3.45-5.6-1.88-2.63-3.66-5.33-5.6-7.91a137.16,137.16,0,0,0-11.58-13.54A28.22,28.22,0,0,0,248.18,10a6.45,6.45,0,0,0-1.52-.67,3,3,0,0,0-3.87,2,7.36,7.36,0,0,0-.25.92c-.57,2.77-1.13,5.54-1.7,8.3a4.64,4.64,0,0,1-1.51,3.1c-.49.58-1,1.17-1.44,1.76-1.1,1.32-2.21,2.63-3.3,3.95a1,1,0,0,1-1.24.4c-1-.34-2.07-.56-3.12-.81a74.62,74.62,0,0,0-8.4-1.78,1.94,1.94,0,0,0-2.21,2.14,6.32,6.32,0,0,0,.69,2.52,37.85,37.85,0,0,0,2.92,4.52c1.2,1.49,2.42,3,3.62,4.46.42.52.41.56-.19.84a25.19,25.19,0,0,0-5.78,3.79,54.87,54.87,0,0,0-6.08,6.4c-.34.4-.65.81-1,1.23-.51.71-.44,1,.35,1.37s1.37.6,2.07.87c2.18.85,4.36,1.72,6.49,2.7a30.61,30.61,0,0,1,7.48,4.68,27.3,27.3,0,0,1,8.29,12.76A33.84,33.84,0,0,1,239.78,82a39,39,0,0,1-.08,5.92,6.06,6.06,0,0,1-.36,1.34c-.21-.33-.42-.66-.64-1a1.36,1.36,0,0,0-.17-.17,8.52,8.52,0,0,0-5.17-2.54,29.41,29.41,0,0,0-7.14-.25,12.56,12.56,0,0,0-5.34,1.6,6.4,6.4,0,0,0-2.73,2.93,7.87,7.87,0,0,0-.53,4.55,2.69,2.69,0,0,0,3.24,2.42l.23,0a26.24,26.24,0,0,0,4.57-1.41,21.9,21.9,0,0,1,5-1.56,8.62,8.62,0,0,1,2.27,0,1.31,1.31,0,0,1,1.26,1,21.75,21.75,0,0,1,.74,5.44,1.9,1.9,0,0,1-.37,1.12,19,19,0,0,1-1.44,1.9,22.64,22.64,0,0,1-5.55,4.68,15.59,15.59,0,0,1-6.31,2.08,15.2,15.2,0,0,1-5.88-.78,17.73,17.73,0,0,1-4.63-2.15,26.68,26.68,0,0,1-7.24-7.58c-1.33-2-2.57-4.13-3.84-6.21a4.56,4.56,0,0,0-.84-1c-.73-.69-1.28-.6-1.63.32a23.32,23.32,0,0,0-1.81,7,14.32,14.32,0,0,0,.12,2.93,18,18,0,0,0,3.57,7.87,62.48,62.48,0,0,1,3.81,5.49,4.2,4.2,0,0,1,.78,2,4.52,4.52,0,0,1-1.16,3,6.27,6.27,0,0,1-3.72,2,19.7,19.7,0,0,1-7.65,0c-1.06-.19-2.12-.29-3.18-.38a19.58,19.58,0,0,0-4.65.19,29.46,29.46,0,0,0-7.5,2.35c-2.9,1.31-5.24,3.46-7.77,5.31a64.21,64.21,0,0,0-5.77,5.19c-1.34,1.25-2.65,2.54-3.93,3.85-2,2.09-4,4.19-6,6.33s-3.81,4.41-5.59,6.71c-2.18,2.81-4.2,5.72-5,9.29a7.56,7.56,0,0,0-.21,1.76,1.32,1.32,0,0,0,.77,1.26,3.35,3.35,0,0,0,2.3.38,30.15,30.15,0,0,0,7.17-2.48c.15-.08.3-.14.44,0s0,.2,0,.3c-.55,2.33-1.11,4.65-1.65,7-.73,3.22-1.39,6.46-2,9.7-.3,1.6-.46,3.23-.92,4.8a23.09,23.09,0,0,0-.64,4.43c-.16,1.75-.41,3.49-.48,5.25s-.3,3.29-.44,5c-.21,2.55-.35,5.11-.49,7.67-.17,2.88-.26,5.75-.3,8.63,0,1.91,0,3.83,0,5.74.08,2.89.14,5.78.35,8.66.11,1.51.13,3,.31,4.54.3,2.53.44,5.07.88,7.58.35,2,.65,3.93,1,5.89.07.39.18.78.25,1.17a.36.36,0,0,1-.38.47h-.24c-.74.09-.74.09-.76.86V251c0,8,0,16.06.15,24.1,0,1.88,0,3.76,0,5.64a3.17,3.17,0,0,1-.09,1.3c-.52-.15-.65-.65-.9-1q-5.88-9-11.75-17.93c-2.86-4.37-5.74-8.74-8.58-13.12a1.08,1.08,0,0,0-1.1-.51c-2.12,0-4.24,0-6.36,0-.67,0-1.52-.28-2,.13s-.1,1.28-.12,1.95v.24c.09,7.79-.06,15.59.12,23.38.16,6.88,0,13.76,0,20.64,0,1.12,0,2.24,0,3.36,0,.43.1.65.6.65,2.72,0,5.44,0,8.16,0,.73,0,.76-.06.79-.73,0-.28,0-.56,0-.84,0-6.23,0-12.47-.14-18.7-.08-4,0-8,0-12,0-.15,0-.37.1-.4s.25.16.36.27a2.23,2.23,0,0,1,.2.3L134.89,281c3.9,5.94,7.82,11.86,11.7,17.82a1.56,1.56,0,0,0,1.53.83c2.32-.05,4.64,0,7,0,1.48,0,1.3.12,1.28-1.27-.08-7.16.07-14.31-.11-21.47-.16-6.63,0-13.27,0-19.91a3.92,3.92,0,0,1,.33-1.62,29.41,29.41,0,0,0,1.3-3.07,44.93,44.93,0,0,0,2.07-7.83c.17-1.26.62-2.48.78-3.74a27.42,27.42,0,0,1,.63-3.53c1-3.82,1.75-7.68,2.44-11.56.28-1.57.63-3.13.79-4.71a38.73,38.73,0,0,1,.55-3.89c.17-.9.26-1.8.41-2.7.34-1.91.53-3.85,1-5.74.13-.5.18-1,.26-1.53a30.18,30.18,0,0,1,1.21-5.22c.42-1.2.61-2.45,1.09-3.65.26-.67.43-1.45.71-2.11a43.23,43.23,0,0,1,2.49-5.51c1.09-1.88,2.83-2.46,4.41-.62.13.15.25.31.37.47a18.77,18.77,0,0,1,2.57,4.71c1.29,3.42,2.5,6.87,3.47,10.41.53,1.92,1.13,3.82,1.58,5.76.68,3,1.47,6,2.09,9,.71,3.39,1.54,6.75,2.37,10.12,1.3,5.25,2.69,10.49,4.48,15.6a22.2,22.2,0,0,0,3.58,7.12,2.34,2.34,0,0,1,.52,1.64q0,9.12,0,18.24h0c0,5.08,0,10.16,0,15.24,0,3.51.25,7,.16,10.54,0,.78,0,.8.8.8H206c1.4,0,1.32.2,1.32-1.25q0-9,0-18c0-.48,0-1,0-1.44,0-.22-.07-.51.26-.58s.64-.08.84.26c.08.14.15.28.22.42q1.53,2.85,3.05,5.7c2.5,4.68,5,9.35,7.49,14a1.2,1.2,0,0,0,1.22.72c2.84,0,5.68,0,8.52,0,1.12,0,1.13,0,.61-1q-4-7.44-8-14.87-1.58-3-3.17-5.9c-.18-.33-.22-.56.24-.7a12.81,12.81,0,0,0,2.49-1.16,12.1,12.1,0,0,0,5.89-7.37,16.18,16.18,0,0,0,.16-8.62c-1.27-5-4.23-8.41-9.35-9.72a33.28,33.28,0,0,0-6.52-.78c-2.11-.11-4.23-.05-6.35-.07-1.12,0-1,.11-1-1.06,0-.4.05-.8.07-1.19,0-1.1.12-2.19.1-3.28,0-2.41-.1-4.82-.2-7.22-.13-3.26-.18-6.52-.4-9.77-.11-1.52,0-3.06,0-4.58,0-1.69.06-3.38.24-5,.15-1.5.29-3,.46-4.5s.36-3.07.55-4.61c.14-1.18.39-2.35.59-3.53a59.34,59.34,0,0,1,1.82-7.78c.45-1.45.76-2.93,1.23-4.37.27-.81.52-1.65.79-2.47.64-1.94,1.43-3.84,2.18-5.75.3-.78.64-1.54,1-2.31.06-.15.13-.33.3-.32s.32.2.37.4,0,.23.07.35c1.09,3.74,2.18,7.49,3.54,11.15a20.93,20.93,0,0,0,3.37,6c1.11,1.37,2.31,1.59,3.87.49a5.19,5.19,0,0,0,2-2.78,17.1,17.1,0,0,0,.57-4.22q.19-5,.52-9.89c.12-1.87.25-3.75.34-5.62.14-2.94.36-5.87.51-8.81.06-1.23.14-2.46.22-3.7.12-1.75.29-3.49.4-5.24.14-2.11.24-4.22.37-6.33a22.13,22.13,0,0,0,.07-4.53,33.58,33.58,0,0,0-1.16-4.75,10.9,10.9,0,0,0-1.66-3.3c-1.34-1.78-2.66-3.58-4.15-5.25a31,31,0,0,1-3.2-4,8.71,8.71,0,0,1-1.58-4.81,1.89,1.89,0,0,1,.52-1.41,13.88,13.88,0,0,1,3-2.37,58.71,58.71,0,0,1,7.39-3.39,42.61,42.61,0,0,0,5.95-3,75.29,75.29,0,0,0,7-4.61q2.86-2.17,5.51-4.59a61.35,61.35,0,0,0,6.4-6.79c1.27-1.58,2.52-3.18,3.69-4.84s2.16-3.25,3.14-4.95a65.81,65.81,0,0,0,3.57-7c.65-1.52,1.27-3.05,1.81-4.62.4-1.16.84-2.31,1.15-3.49a2,2,0,0,1,1.05-1.37l3.28-1.72c2.09-1.08,4.18-2.16,6.28-3.22.68-.34.7-.33,1.21.22a10,10,0,0,0,1.71,1.67,14.87,14.87,0,0,0,5.93,2.4,3.27,3.27,0,0,0,2.19-.41,1.46,1.46,0,0,0,.86-1.45A11.37,11.37,0,0,0,288.45,69.65ZM207.31,263.76c0-1.44,0-2.88,0-4.31,0-.82,0-.85.76-.84a54.86,54.86,0,0,1,5.73.2,5,5,0,0,1,4.48,6.12,4,4,0,0,1-3,3.39,13.64,13.64,0,0,1-3.28.55c-1.31.09-2.64,0-4,0-.73,0-.75,0-.76-.72C207.3,266.71,207.31,265.24,207.31,263.76Z"/></g></g></svg>